# xmcd
#
# Track frame offsets:
#	150
#	12457
#	29657
#	47822
#	68900
#	85930
#	100727
#	116875
#	131745
#	147210
#
# Disc length: 2139 seconds
#
# Revision: 6
# Processed by: cddbd v1.5.2PL0 Copyright (c) Steve Scherf et al.
# Submitted via: dBpowerAMP V4.0
#
DISCID=9008590a
DTITLE=Dolly Parton - 9 To 5 And Odd Jobs
DYEAR=1980
DGENRE=Country
TTITLE0=9 To 5
TTITLE1=Hush-A-Bye Hard Times
TTITLE2=The House Of The Rising Sun
TTITLE3=Deportee (Plane Wreck At Los Gatos)
TTITLE4=Sing For The Common Man
TTITLE5=Working Girl
TTITLE6=Detroit City
TTITLE7=But You Know I Love You
TTITLE8=Dark As A Dungeon
TTITLE9=Poor Folks Town
EXTD=
EXTT0=
EXTT1=
EXTT2=
EXTT3=
EXTT4=
EXTT5=
EXTT6=
EXTT7=
EXTT8=
EXTT9=
PLAYORDER=
